<?xml version="1.0" encoding="UTF-8"?>
<!DOCTYPE svg PUBLIC "-//W3C//DTD SVG 1.1//EN" "http://www.w3.org/Graphics/SVG/1.1/DTD/svg11.dtd">
<svg xmlns="http://www.w3.org/2000/svg" version="1.1" width="588px" height="516px" style="shape-rendering:geometricPrecision; text-rendering:geometricPrecision; image-rendering:optimizeQuality; fill-rule:evenodd; clip-rule:evenodd" xmlns:xlink="http://www.w3.org/1999/xlink">
<g><path style="opacity:1" fill="#fdfdfd" d="M 22.5,20.5 C 130.167,20.5 237.833,20.5 345.5,20.5C 345.5,52.8333 345.5,85.1667 345.5,117.5C 291.5,117.5 237.5,117.5 183.5,117.5C 183.5,171.5 183.5,225.5 183.5,279.5C 161.831,279.333 140.164,279.5 118.5,280C 86.6667,311.833 54.8333,343.667 23,375.5C 22.5,257.167 22.3333,138.834 22.5,20.5 Z"/></g>
<g><path style="opacity:1" fill="#fdfdfd" d="M 216.5,149.5 C 324.167,149.5 431.833,149.5 539.5,149.5C 539.833,268.001 539.5,386.335 538.5,504.5C 507.14,472.473 475.473,440.806 443.5,409.5C 368.002,408.501 292.335,408.167 216.5,408.5C 216.5,322.167 216.5,235.833 216.5,149.5 Z"/></g>
</svg>
