<svg id="efjAxHmMyGd1" xmlns="http://www.w3.org/2000/svg" xmlns:xlink="http://www.w3.org/1999/xlink" viewBox="0 0 221 42" shape-rendering="geometricPrecision" text-rendering="geometricPrecision">
<style><![CDATA[
#efjAxHmMyGd3_to {animation: efjAxHmMyGd3_to__to 1000ms linear 1 normal forwards}@keyframes efjAxHmMyGd3_to__to { 0% {transform: translate(14.392105px,17.34882px);animation-timing-function: cubic-bezier(0.39,0.575,0.565,1)} 100% {transform: translate(102.906679px,18.24032px)}} #efjAxHmMyGd4_to {animation: efjAxHmMyGd4_to__to 1000ms linear 1 normal forwards}@keyframes efjAxHmMyGd4_to__to { 0% {transform: translate(29.576321px,27.3488px);animation-timing-function: cubic-bezier(0.39,0.575,0.565,1)} 100% {transform: translate(118.090894px,28.2403px)}} #efjAxHmMyGd6_to {animation: efjAxHmMyGd6_to__to 1000ms linear 1 normal forwards}@keyframes efjAxHmMyGd6_to__to { 0% {transform: translate(136.864849px,37.423349px);animation-timing-function: cubic-bezier(0.39,0.575,0.565,1)} 100% {transform: translate(7.643837px,37.423349px)}} #efjAxHmMyGd7_to {animation: efjAxHmMyGd7_to__to 1000ms linear 1 normal forwards}@keyframes efjAxHmMyGd7_to__to { 0% {transform: translate(135.684399px,14.50002px);animation-timing-function: cubic-bezier(0.39,0.575,0.565,1)} 100% {transform: translate(7.884287px,13.851582px)}} #efjAxHmMyGd9_to {animation: efjAxHmMyGd9_to__to 1000ms linear 1 normal forwards}@keyframes efjAxHmMyGd9_to__to { 0% {transform: translate(124.01445px,21px);animation-timing-function: cubic-bezier(0.39,0.575,0.565,1)} 100% {transform: translate(204.98555px,21px)}}
]]></style>
<rect width="247.204453" height="72.819916" rx="0" ry="0" transform="translate(-8.017535-14.590309)" fill="#131417" stroke-width="0"/><g id="efjAxHmMyGd3_to" transform="translate(14.392105,17.34882)"><path d="M1.7602,3.58914c8.4229,0,16.8458,0,25.2687,0c0,2.50646,0,5.01292,0,7.51936-4.2245,0-8.449,0-12.6735,0c0,4.1861,0,8.3721,0,12.5582-1.6952-.013-3.3902,0-5.085.0387-2.49036,2.4677-4.98072,4.9354-7.47108,7.4031-.03912-9.1731-.05216-18.3462-.03912-27.51936Z" transform="translate(-14.392105,-17.34882)" clip-rule="evenodd" fill="#fdfdfd" fill-rule="evenodd"/></g><g id="efjAxHmMyGd4_to" transform="translate(29.576321,27.3488)"><path d="M16.9371,13.5891c8.4229,0,16.8458,0,25.2687,0c.026,9.1862,0,18.3594-.0783,27.5194-2.4533-2.4827-4.9306-4.9375-7.4319-7.3643-5.9063-.0775-11.8259-.1033-17.7585-.0775c0-6.6925,0-13.3851,0-20.0776Z" transform="translate(-29.57632,-27.3488)" clip-rule="evenodd" fill="#fdfdfd" fill-rule="evenodd"/></g><g mask="url(#efjAxHmMyGd8)"><g id="efjAxHmMyGd6_to" transform="translate(136.864849,37.423349)"><path d="M58.0049,39.1006c0,.4232-.1058.7845-.3174,1.084-.2083.2962-.5013.5224-.8789.6787-.3776.1562-.8219.2344-1.333.2344-.2702,0-.5257-.0131-.7666-.0391s-.4623-.0635-.6641-.1123-.3792-.1091-.5322-.1807v-.7959c.2441.1009.542.1953.8935.2832.3516.0847.7195.127,1.1036.127.358,0,.6608-.0472.9082-.1416.2474-.0977.4345-.236.5615-.4151.1302-.1822.1953-.4003.1953-.6543c0-.2441-.0537-.4475-.1611-.6103-.1075-.166-.2865-.3158-.5371-.4492-.2474-.1367-.586-.2816-1.0157-.4346-.3027-.1074-.5696-.2246-.8007-.3516-.2312-.1302-.4248-.2767-.5811-.4394-.1562-.1628-.2751-.3516-.3564-.5664-.0782-.2149-.1172-.4606-.1172-.7373c0-.3809.096-.7064.2881-.9766.1953-.2734.4638-.4818.8056-.625.3451-.1465.7406-.2197,1.1865-.2197.3809,0,.7325.0358,1.0547.1074.3256.0716.6234.1677.8936.2881l-.2588.7129c-.2572-.1074-.5306-.197-.8203-.2686-.2865-.0716-.5827-.1074-.8887-.1074s-.5648.0456-.7764.1367c-.2083.0879-.3678.2132-.4785.376-.1106.1628-.166.3565-.166.5811c0,.2506.0521.4589.1563.625.1074.166.2767.3141.5078.4443.2344.1269.5436.2604.9277.4004.4199.153.7764.3157,1.0693.4883.293.1692.516.3776.669.625.153.2441.2295.555.2295.9326ZM62.2572,41h-.8349v-6.4062h-2.2461v-.7325h5.3174v.7325h-2.2364v6.4062Zm10.1069-3.5791c0,.5501-.07,1.0514-.21,1.5039-.14.4492-.3483.8366-.625,1.1621-.2734.3223-.6136.5713-1.0205.7471s-.8789.2637-1.416.2637c-.5534,0-1.0368-.0879-1.4502-.2637-.4102-.1758-.752-.4264-1.0254-.752-.2702-.3255-.4736-.7145-.6104-1.167-.1334-.4524-.2002-.9537-.2002-1.5039c0-.7291.1205-1.3688.3614-1.9189s.6054-.9782,1.0937-1.2842c.4916-.306,1.1068-.459,1.8457-.459.7064,0,1.3005.1514,1.7823.4541.485.3028.8512.7292,1.0986,1.2793.2506.5469.376,1.1931.376,1.9385Zm-5.6836,0c0,.6055.0862,1.1296.2588,1.5723.1725.4427.4362.7845.791,1.0254.358.2408.8121.3613,1.3623.3613.5534,0,1.0058-.1205,1.3574-.3613.3548-.2409.6169-.5827.7861-1.0254.1693-.4427.2539-.9668.2539-1.5723c0-.9212-.1936-1.6406-.581-2.1582-.3841-.5208-.9847-.7813-1.8018-.7813-.5534,0-1.0091.1189-1.3672.3565-.358.2376-.625.5762-.8007,1.0156-.1726.4362-.2588.9587-.2588,1.5674Zm9.8041-3.5596c.5859,0,1.0693.0733,1.4502.2198.3841.1432.6705.3629.8593.6591s.2832.6739.2832,1.1328c0,.3777-.0683.6934-.205.9473-.1368.2507-.3158.4541-.5371.6104-.2214.1562-.4574.2767-.7081.3613L79.5852,41h-.9668l-1.7481-2.9785h-1.4844v2.9785h-.83v-7.1387h1.9287Zm-.0489.7178h-1.0498v2.7393h1.1328c.5827,0,1.0108-.1189,1.2842-.3565.2767-.2376.4151-.5876.4151-1.0498c0-.485-.1465-.8284-.4395-1.0303-.2897-.2018-.7373-.3027-1.3428-.3027ZM85.8053,41l-.8789-2.2656h-2.8614L81.191,41h-.8398l2.7929-7.168h.7471L86.6646,41h-.8593Zm-1.128-3.0029l-.8349-2.251c-.0195-.0586-.0521-.1546-.0977-.2881-.0423-.1335-.0862-.2718-.1318-.415s-.083-.2588-.1123-.3467c-.0326.1335-.0684.2669-.1074.4004-.0358.1302-.0717.2523-.1075.3662-.0358.1107-.0667.2051-.0927.2832l-.8496,2.251h2.3339Zm6.6303-.7373h2.4951v3.4619c-.3743.1269-.7601.2213-1.1572.2832-.3939.0618-.835.0928-1.3232.0928-.7422,0-1.3688-.1482-1.8799-.4444-.5078-.2962-.8936-.7178-1.1572-1.2646-.2637-.5502-.3956-1.2028-.3956-1.958c0-.739.1449-1.3835.4346-1.9336.293-.5502.7145-.9766,1.2647-1.2793.5534-.306,1.2174-.459,1.9922-.459.3971,0,.7731.0374,1.1279.1123.3581.0716.6901.1741.9961.3076l-.3174.7227c-.2637-.114-.555-.2116-.874-.293-.3158-.0814-.6429-.1221-.9815-.1221-.5827,0-1.0823.1205-1.499.3614-.4134.2408-.7308.581-.9521,1.0205-.2181.4394-.3272.9603-.3272,1.5625c0,.5957.096,1.1149.2881,1.5576.192.4394.4915.7812.8984,1.0254s.931.3662,1.5723.3662c.3223,0,.599-.0179.8301-.0537.2311-.0391.4411-.0847.6299-.1367v-2.1875h-1.6651v-.7422ZM100.106,41h-3.9748v-7.1387h3.9748v.7325h-3.1447v2.3095h2.9639v.7227h-2.9639v2.6416h3.1447v.7324Zm1.606-2.3242v-.7227h2.422v.7227h-2.422ZM106.941,41h-.83v-7.1387h3.974v.7325h-3.144v2.6171h2.954v.7276h-2.954v3.0615Zm6.864-7.1387c.586,0,1.07.0733,1.45.2198.385.1432.671.3629.86.6591s.283.6739.283,1.1328c0,.3777-.068.6934-.205.9473-.137.2507-.316.4541-.537.6104-.221.1562-.457.2767-.708.3613L116.906,41h-.967l-1.748-2.9785h-1.484v2.9785h-.83v-7.1387h1.928Zm-.049.7178h-1.049v2.7393h1.132c.583,0,1.011-.1189,1.285-.3565.276-.2376.415-.5876.415-1.0498c0-.485-.147-.8284-.44-1.0303-.289-.2018-.737-.3027-1.343-.3027ZM122.623,41h-3.975v-7.1387h3.975v.7325h-3.144v2.3095h2.963v.7227h-2.963v2.6416h3.144v.7324Zm6.157,0h-3.975v-7.1387h3.975v.7325h-3.145v2.3095h2.964v.7227h-2.964v2.6416h3.145v.7324Zm13.49-7.1387L140.361,41h-.835l-1.416-4.8047c-.043-.1367-.083-.2734-.122-.4101-.036-.14-.07-.2719-.103-.3956-.033-.1269-.06-.2376-.083-.332-.02-.0976-.034-.1709-.044-.2197-.006.0488-.02.1204-.039.2148-.016.0944-.039.2035-.068.3272-.026.1237-.059.2555-.098.3955-.036.14-.075.2816-.117.4248L136.059,41h-.835l-1.895-7.1387h.865l1.147,4.4776c.039.1497.075.2978.107.4443.036.1432.067.2832.093.4199.03.1367.056.2702.078.4004.023.1302.044.2572.064.3809.016-.127.037-.2588.063-.3955.026-.14.054-.2816.083-.4248.033-.1433.067-.2881.103-.4346.039-.1465.08-.293.122-.4395l1.284-4.4287h.855l1.337,4.4629c.046.153.088.3044.127.4541s.074.2962.103.4395c.033.1399.06.275.083.4052.026.127.049.2474.068.3614.023-.1595.051-.3272.083-.503.033-.1757.07-.3597.113-.5517.045-.1921.094-.3906.146-.5957l1.148-4.4727h.869ZM147.972,41h-3.974v-7.1387h3.974v.7325h-3.144v2.3095h2.964v.7227h-2.964v2.6416h3.144v.7324Zm2.182-7.1387h2.022c.892,0,1.562.1335,2.012.4004.449.2669.673.721.673,1.3623c0,.2767-.053.5257-.161.7471-.104.2181-.257.3988-.459.542s-.451.2425-.747.2978v.0489c.313.0488.589.1383.83.2685s.43.3125.567.5469c.136.2344.205.5322.205.8936c0,.4394-.103.8105-.308,1.1132-.202.3028-.488.5323-.859.6885-.371.153-.811.2295-1.319.2295h-2.456v-7.1387Zm.83,3.0616h1.368c.621,0,1.051-.1026,1.289-.3077.241-.205.361-.5045.361-.8984c0-.4069-.143-.6999-.43-.8789-.283-.179-.735-.2686-1.357-.2686h-1.231v2.3536Zm0,.6982v2.6709h1.485c.635,0,1.084-.1237,1.347-.3711.264-.2507.396-.5876.396-1.0107c0-.2702-.06-.5013-.181-.6934-.117-.1921-.309-.3385-.576-.4395-.264-.1041-.617-.1562-1.059-.1562h-1.412ZM163.556,41l-2.397-6.3184h-.039c.013.1335.024.2963.034.4883.01.1921.018.402.025.6299.006.2246.009.4541.009.6885v4.5117h-.771v-7.1387h1.23l2.261,5.9375h.034l2.295-5.9375h1.221v7.1387h-.821v-4.5703c0-.2116.004-.4232.01-.6348.007-.2148.015-.4166.025-.6054.009-.1921.019-.3581.029-.4981h-.039L164.235,41h-.679Zm10.43,0h-3.975v-7.1387h3.975v.7325h-3.145v2.3095h2.964v.7227h-2.964v2.6416h3.145v.7324Zm6.21-1.8994c0,.4232-.106.7845-.317,1.084-.209.2962-.502.5224-.879.6787-.378.1562-.822.2344-1.333.2344-.271,0-.526-.0131-.767-.0391s-.462-.0635-.664-.1123-.379-.1091-.532-.1807v-.7959c.244.1009.542.1953.893.2832.352.0847.72.127,1.104.127.358,0,.661-.0472.908-.1416.247-.0977.435-.236.562-.4151.13-.1822.195-.4003.195-.6543c0-.2441-.054-.4475-.161-.6103-.108-.166-.287-.3158-.537-.4492-.248-.1367-.586-.2816-1.016-.4346-.303-.1074-.57-.2246-.801-.3516-.231-.1302-.425-.2767-.581-.4394-.156-.1628-.275-.3516-.356-.5664-.078-.2149-.118-.4606-.118-.7373c0-.3809.097-.7064.289-.9766.195-.2734.463-.4818.805-.625.345-.1465.741-.2197,1.187-.2197.381,0,.732.0358,1.054.1074.326.0716.624.1677.894.2881l-.259.7129c-.257-.1074-.53-.197-.82-.2686-.287-.0716-.583-.1074-.889-.1074s-.565.0456-.776.1367c-.208.0879-.368.2132-.479.376-.11.1628-.166.3565-.166.5811c0,.2506.052.4589.157.625.107.166.276.3141.507.4443.235.1269.544.2604.928.4004.42.153.776.3157,1.069.4883.293.1692.516.3776.669.625.153.2441.23.555.23.9326Zm6.088,0c0,.4232-.106.7845-.317,1.084-.209.2962-.502.5224-.879.6787-.378.1562-.822.2344-1.333.2344-.27,0-.526-.0131-.767-.0391s-.462-.0635-.664-.1123-.379-.1091-.532-.1807v-.7959c.244.1009.542.1953.894.2832.351.0847.719.127,1.103.127.358,0,.661-.0472.908-.1416.248-.0977.435-.236.562-.4151.13-.1822.195-.4003.195-.6543c0-.2441-.054-.4475-.161-.6103-.107-.166-.286-.3158-.537-.4492-.248-.1367-.586-.2816-1.016-.4346-.302-.1074-.569-.2246-.801-.3516-.231-.1302-.424-.2767-.581-.4394-.156-.1628-.275-.3516-.356-.5664-.078-.2149-.117-.4606-.117-.7373c0-.3809.096-.7064.288-.9766.195-.2734.464-.4818.806-.625.345-.1465.74-.2197,1.186-.2197.381,0,.732.0358,1.055.1074.325.0716.623.1677.893.2881l-.259.7129c-.257-.1074-.53-.197-.82-.2686-.286-.0716-.583-.1074-.888-.1074-.306,0-.565.0456-.777.1367-.208.0879-.368.2132-.478.376-.111.1628-.166.3565-.166.5811c0,.2506.052.4589.156.625.107.166.277.3141.508.4443.234.1269.543.2604.927.4004.42.153.777.3157,1.07.4883.293.1692.516.3776.669.625.153.2441.229.555.229.9326ZM192.822,41l-.879-2.2656h-2.862L188.207,41h-.839l2.793-7.168h.747L193.681,41h-.859Zm-1.128-3.0029l-.835-2.251c-.02-.0586-.052-.1546-.098-.2881-.042-.1335-.086-.2718-.132-.415-.045-.1433-.083-.2588-.112-.3467-.033.1335-.068.2669-.107.4004-.036.1302-.072.2523-.108.3662-.036.1107-.067.2051-.093.2832l-.849,2.251h2.334Zm6.63-.7373h2.495v3.4619c-.374.1269-.76.2213-1.157.2832-.394.0618-.835.0928-1.323.0928-.743,0-1.369-.1482-1.88-.4444-.508-.2962-.894-.7178-1.157-1.2646-.264-.5502-.396-1.2028-.396-1.958c0-.739.145-1.3835.435-1.9336.293-.5502.714-.9766,1.264-1.2793.554-.306,1.218-.459,1.992-.459.398,0,.774.0374,1.128.1123.358.0716.69.1741.996.3076l-.317.7227c-.264-.114-.555-.2116-.874-.293-.316-.0814-.643-.1221-.981-.1221-.583,0-1.083.1205-1.499.3614-.414.2408-.731.581-.953,1.0205-.218.4394-.327.9603-.327,1.5625c0,.5957.096,1.1149.288,1.5576.192.4394.492.7812.899,1.0254s.931.3662,1.572.3662c.322,0,.599-.0179.83-.0537.231-.0391.441-.0847.63-.1367v-2.1875h-1.665v-.7422ZM203.148,41v-7.1387h.83v7.1387h-.83Zm8.974,0h-.957l-3.892-5.9961h-.039c.01.1595.021.3418.034.5469.013.2018.023.4183.029.6494.01.2279.015.4606.015.6982v4.1016h-.771v-7.1387h.952l3.877,5.9766h.034c-.007-.1139-.015-.2751-.025-.4834-.009-.2116-.019-.4378-.029-.6787-.006-.2442-.01-.4704-.01-.6787v-4.1358h.782v7.1387Zm5.6-3.7402h2.495v3.4619c-.375.1269-.76.2213-1.157.2832-.394.0618-.835.0928-1.324.0928-.742,0-1.368-.1482-1.88-.4444-.507-.2962-.893-.7178-1.157-1.2646-.263-.5502-.395-1.2028-.395-1.958c0-.739.145-1.3835.434-1.9336.293-.5502.715-.9766,1.265-1.2793.553-.306,1.217-.459,1.992-.459.397,0,.773.0374,1.128.1123.358.0716.69.1741.996.3076l-.317.7227c-.264-.114-.555-.2116-.874-.293-.316-.0814-.643-.1221-.982-.1221-.582,0-1.082.1205-1.499.3614-.413.2408-.731.581-.952,1.0205-.218.4394-.327.9603-.327,1.5625c0,.5957.096,1.1149.288,1.5576.192.4394.492.7812.898,1.0254.407.2441.931.3662,1.573.3662.322,0,.599-.0179.83-.0537.231-.0391.441-.0847.63-.1367v-2.1875h-1.665v-.7422Z" transform="translate(-136.864849,-37.423349)" fill="#fff"/></g><g id="efjAxHmMyGd7_to" transform="translate(135.684399,14.50002)"><path d="M64.1504,6.4668c-1.043,0-1.9688.20508-2.7774.61523-.7968.39844-1.4707.97852-2.0214,1.74024-.5391.76171-.9493,1.68163-1.2305,2.75973-.2813,1.0782-.4219,2.291-.4219,3.6387c0,1.8164.2227,3.3691.668,4.6582.457,1.2773,1.1601,2.2559,2.1094,2.9356.9492.6679,2.1738,1.0019,3.6738,1.0019c1.043,0,2.0859-.1172,3.1289-.3516c1.0547-.2343,2.1973-.5683,3.4277-1.0019v4.5703c-1.1367.4688-2.2558.8027-3.3574,1.002-1.1016.2109-2.3379.3164-3.709.3164-2.6484,0-4.8281-.545-6.539-1.6348-1.6993-1.1016-2.959-2.6367-3.7793-4.6055-.8203-1.9804-1.2305-4.289-1.2305-6.9258c0-1.9453.2637-3.7265.791-5.3437s1.3008-3.01758,2.3203-4.20118c1.0196-1.18359,2.2793-2.09765,3.7793-2.74218s3.2227-.9668,5.168-.9668c1.2773,0,2.5547.16406,3.832.49219c1.2891.3164,2.5196.75586,3.6914,1.31836L69.916,8.17188c-.9609-.45704-1.9277-.85547-2.9004-1.19532s-1.9277-.50976-2.8652-.50976ZM81.1309,28h-5.3614v-27.351562h5.3614v27.351562ZM94.877,7.97852c1.8164,0,3.3808.35156,4.6933,1.05468c1.3127.69141,2.3257,1.6992,3.0407,3.0234.715,1.3243,1.073,2.9414,1.073,4.8516v2.6016h-12.6742c.0586,1.5117.5097,2.7011,1.3535,3.5683.8555.8555,2.039,1.2832,3.5508,1.2832c1.2539,0,2.4023-.1289,3.4453-.3867c1.0426-.2578,2.1156-.6445,3.2166-1.1601v4.1484c-.972.4805-1.992.832-3.0584,1.0547-1.0547.2226-2.3379.334-3.8496.334-1.9688,0-3.7149-.3633-5.2383-1.0899-1.5117-.7265-2.7012-1.834-3.5684-3.3222-.8554-1.4883-1.2832-3.3633-1.2832-5.625c0-2.2969.3867-4.2071,1.1602-5.7305.7851-1.5352,1.875-2.68361,3.2695-3.44533c1.3945-.77344,3.0176-1.16015,4.8692-1.16015Zm.0351,3.81448c-1.043,0-1.9101.334-2.6016,1.0019-.6796.668-1.0722,1.7168-1.1777,3.1465h7.5234c-.0117-.7969-.1582-1.5059-.4394-2.1269-.2695-.6211-.6797-1.1133-1.2305-1.4766-.539-.3633-1.2304-.5449-2.0742-.5449ZM116.094,7.94336c2.636,0,4.658.57422,6.064,1.72266s2.11,2.89448,2.11,5.23828v13.0957h-3.745l-1.037-2.6719h-.14c-.563.7031-1.137,1.2774-1.723,1.7227s-1.26.7734-2.021.9844c-.762.2109-1.688.3164-2.778.3164-1.16,0-2.203-.2227-3.129-.668-.914-.4453-1.634-1.125-2.162-2.0391-.527-.9257-.791-2.0976-.791-3.5156c0-2.0859.733-3.6211,2.197-4.6055c1.465-.9961,3.663-1.5468,6.592-1.6523l3.41-.1055v-.8613c0-1.0313-.269-1.7871-.808-2.2676s-1.289-.7207-2.25-.7207c-.949,0-1.881.1348-2.795.4043s-1.828.6094-2.742,1.0195L108.57,9.71875c1.043-.55078,2.209-.98437,3.498-1.30078c1.301-.31641,2.643-.47461,4.026-.47461Zm2.847,10.95114l-2.074.0703c-1.734.0469-2.941.3575-3.621.9317-.668.5742-1.002,1.3301-1.002,2.2676c0,.8203.24,1.4062.721,1.7578.48.3398,1.107.5097,1.881.5097c1.148,0,2.115-.3398,2.9-1.0195.797-.6797,1.195-1.6465,1.195-2.9004v-1.6172ZM140.773,7.97852c.27,0,.581.01757.932.05273.363.02344.656.05859.879.10547l-.404,5.02738c-.176-.0586-.428-.0996-.756-.1231-.317-.0351-.592-.0527-.826-.0527-.692,0-1.366.0879-2.022.2637-.644.1757-1.224.4628-1.74.8613-.516.3867-.926.9023-1.231,1.5469-.293.6328-.439,1.4121-.439,2.3378v10.002h-5.361v-19.65234h4.06l.791,3.30464h.264c.387-.6679.867-1.2773,1.441-1.82808.586-.5625,1.248-1.00781,1.987-1.33594.75-.33984,1.558-.50976,2.425-.50976ZM156.488,28h-5.449v-21.16406h-6.978v-4.53516h19.406v4.53516h-6.979v21.16406ZM175.051,7.94336c2.637,0,4.658.57422,6.064,1.72266s2.11,2.89448,2.11,5.23828v13.0957h-3.745l-1.037-2.6719h-.14c-.563.7031-1.137,1.2774-1.723,1.7227s-1.26.7734-2.021.9844c-.762.2109-1.688.3164-2.778.3164-1.16,0-2.203-.2227-3.129-.668-.914-.4453-1.634-1.125-2.162-2.0391-.527-.9257-.791-2.0976-.791-3.5156c0-2.0859.733-3.6211,2.197-4.6055c1.465-.9961,3.663-1.5468,6.592-1.6523l3.41-.1055v-.8613c0-1.0313-.269-1.7871-.808-2.2676s-1.289-.7207-2.25-.7207c-.949,0-1.881.1348-2.795.4043s-1.828.6094-2.742,1.0195l-1.776-3.62105c1.043-.55078,2.209-.98437,3.498-1.30078c1.301-.31641,2.643-.47461,4.026-.47461Zm2.847,10.95114l-2.074.0703c-1.734.0469-2.941.3575-3.621.9317-.668.5742-1.002,1.3301-1.002,2.2676c0,.8203.24,1.4062.721,1.7578.48.3398,1.107.5097,1.881.5097c1.148,0,2.115-.3398,2.9-1.0195.797-.6797,1.195-1.6465,1.195-2.9004v-1.6172ZM194.123,28h-5.361v-27.351562h5.361v27.351562ZM205.127,0.648438v12.234362c0,.7383-.029,1.4766-.088,2.2149s-.123,1.4765-.193,2.2148h.07c.363-.5156.732-1.0254,1.107-1.5293.387-.5039.797-.9902,1.231-1.459l5.502-5.97654h6.047L210.998,16.873L219.277,28h-6.187l-5.66-7.9629-2.303,1.8457v6.1172h-5.361v-27.351562h5.361Z" transform="translate(-135.684399,-14.50002)" fill="#fff"/></g><mask id="efjAxHmMyGd8"><g id="efjAxHmMyGd9_to" transform="translate(124.01445,21)"><path d="M27.0289,0.648438v13.166062h15.186643L42.127501,42L221,42v-41.351562L27.0289,0v.648438Z" transform="translate(-124.01445,-21)" fill="#fff" stroke="#3f5787" stroke-width="0"/></g></mask></g></svg>
