<svg width="221" height="42" viewBox="0 0 221 42" fill="none" xmlns="http://www.w3.org/2000/svg">
<path d="M64.1504 6.4668C63.1074 6.4668 62.1816 6.67188 61.373 7.08203C60.5762 7.48047 59.9023 8.06055 59.3516 8.82227C58.8125 9.58398 58.4023 10.5039 58.1211 11.582C57.8398 12.6602 57.6992 13.873 57.6992 15.2207C57.6992 17.0371 57.9219 18.5898 58.3672 19.8789C58.8242 21.1562 59.5273 22.1348 60.4766 22.8145C61.4258 23.4824 62.6504 23.8164 64.1504 23.8164C65.1934 23.8164 66.2363 23.6992 67.2793 23.4648C68.334 23.2305 69.4766 22.8965 70.707 22.4629V27.0332C69.5703 27.502 68.4512 27.8359 67.3496 28.0352C66.248 28.2461 65.0117 28.3516 63.6406 28.3516C60.9922 28.3516 58.8125 27.8066 57.1016 26.7168C55.4023 25.6152 54.1426 24.0801 53.3223 22.1113C52.502 20.1309 52.0918 17.8223 52.0918 15.1855C52.0918 13.2402 52.3555 11.459 52.8828 9.8418C53.4102 8.22461 54.1836 6.82422 55.2031 5.64062C56.2227 4.45703 57.4824 3.54297 58.9824 2.89844C60.4824 2.25391 62.2051 1.93164 64.1504 1.93164C65.4277 1.93164 66.7051 2.0957 67.9824 2.42383C69.2715 2.74023 70.502 3.17969 71.6738 3.74219L69.916 8.17188C68.9551 7.71484 67.9883 7.31641 67.0156 6.97656C66.043 6.63672 65.0879 6.4668 64.1504 6.4668ZM81.1309 28H75.7695V0.648438H81.1309V28ZM94.877 7.97852C96.6934 7.97852 98.2578 8.33008 99.5703 9.0332C100.883 9.72461 101.896 10.7324 102.611 12.0566C103.326 13.3809 103.684 14.998 103.684 16.9082V19.5098H91.0098C91.0684 21.0215 91.5195 22.2109 92.3633 23.0781C93.2188 23.9336 94.4023 24.3613 95.9141 24.3613C97.168 24.3613 98.3164 24.2324 99.3594 23.9746C100.402 23.7168 101.475 23.3301 102.576 22.8145V26.9629C101.604 27.4434 100.584 27.7949 99.5176 28.0176C98.4629 28.2402 97.1797 28.3516 95.668 28.3516C93.6992 28.3516 91.9531 27.9883 90.4297 27.2617C88.918 26.5352 87.7285 25.4277 86.8613 23.9395C86.0059 22.4512 85.5781 20.5762 85.5781 18.3145C85.5781 16.0176 85.9648 14.1074 86.7383 12.584C87.5234 11.0488 88.6133 9.90039 90.0078 9.13867C91.4023 8.36523 93.0254 7.97852 94.877 7.97852ZM94.9121 11.793C93.8691 11.793 93.002 12.127 92.3105 12.7949C91.6309 13.4629 91.2383 14.5117 91.1328 15.9414H98.6562C98.6445 15.1445 98.498 14.4355 98.2168 13.8145C97.9473 13.1934 97.5371 12.7012 96.9863 12.3379C96.4473 11.9746 95.7559 11.793 94.9121 11.793ZM116.094 7.94336C118.73 7.94336 120.752 8.51758 122.158 9.66602C123.564 10.8145 124.268 12.5605 124.268 14.9043V28H120.523L119.486 25.3281H119.346C118.783 26.0312 118.209 26.6055 117.623 27.0508C117.037 27.4961 116.363 27.8242 115.602 28.0352C114.84 28.2461 113.914 28.3516 112.824 28.3516C111.664 28.3516 110.621 28.1289 109.695 27.6836C108.781 27.2383 108.061 26.5586 107.533 25.6445C107.006 24.7188 106.742 23.5469 106.742 22.1289C106.742 20.043 107.475 18.5078 108.939 17.5234C110.404 16.5273 112.602 15.9766 115.531 15.8711L118.941 15.7656V14.9043C118.941 13.873 118.672 13.1172 118.133 12.6367C117.594 12.1562 116.844 11.916 115.883 11.916C114.934 11.916 114.002 12.0508 113.088 12.3203C112.174 12.5898 111.26 12.9297 110.346 13.3398L108.57 9.71875C109.613 9.16797 110.779 8.73438 112.068 8.41797C113.369 8.10156 114.711 7.94336 116.094 7.94336ZM118.941 18.8945L116.867 18.9648C115.133 19.0117 113.926 19.3223 113.246 19.8965C112.578 20.4707 112.244 21.2266 112.244 22.1641C112.244 22.9844 112.484 23.5703 112.965 23.9219C113.445 24.2617 114.072 24.4316 114.846 24.4316C115.994 24.4316 116.961 24.0918 117.746 23.4121C118.543 22.7324 118.941 21.7656 118.941 20.5117V18.8945ZM140.773 7.97852C141.043 7.97852 141.354 7.99609 141.705 8.03125C142.068 8.05469 142.361 8.08984 142.584 8.13672L142.18 13.1641C142.004 13.1055 141.752 13.0645 141.424 13.041C141.107 13.0059 140.832 12.9883 140.598 12.9883C139.906 12.9883 139.232 13.0762 138.576 13.252C137.932 13.4277 137.352 13.7148 136.836 14.1133C136.32 14.5 135.91 15.0156 135.605 15.6602C135.312 16.293 135.166 17.0723 135.166 17.998V28H129.805V8.34766H133.865L134.656 11.6523H134.92C135.307 10.9844 135.787 10.375 136.361 9.82422C136.947 9.26172 137.609 8.81641 138.348 8.48828C139.098 8.14844 139.906 7.97852 140.773 7.97852ZM156.488 28H151.039V6.83594H144.061V2.30078H163.467V6.83594H156.488V28ZM175.051 7.94336C177.688 7.94336 179.709 8.51758 181.115 9.66602C182.521 10.8145 183.225 12.5605 183.225 14.9043V28H179.48L178.443 25.3281H178.303C177.74 26.0312 177.166 26.6055 176.58 27.0508C175.994 27.4961 175.32 27.8242 174.559 28.0352C173.797 28.2461 172.871 28.3516 171.781 28.3516C170.621 28.3516 169.578 28.1289 168.652 27.6836C167.738 27.2383 167.018 26.5586 166.49 25.6445C165.963 24.7188 165.699 23.5469 165.699 22.1289C165.699 20.043 166.432 18.5078 167.896 17.5234C169.361 16.5273 171.559 15.9766 174.488 15.8711L177.898 15.7656V14.9043C177.898 13.873 177.629 13.1172 177.09 12.6367C176.551 12.1562 175.801 11.916 174.84 11.916C173.891 11.916 172.959 12.0508 172.045 12.3203C171.131 12.5898 170.217 12.9297 169.303 13.3398L167.527 9.71875C168.57 9.16797 169.736 8.73438 171.025 8.41797C172.326 8.10156 173.668 7.94336 175.051 7.94336ZM177.898 18.8945L175.824 18.9648C174.09 19.0117 172.883 19.3223 172.203 19.8965C171.535 20.4707 171.201 21.2266 171.201 22.1641C171.201 22.9844 171.441 23.5703 171.922 23.9219C172.402 24.2617 173.029 24.4316 173.803 24.4316C174.951 24.4316 175.918 24.0918 176.703 23.4121C177.5 22.7324 177.898 21.7656 177.898 20.5117V18.8945ZM194.123 28H188.762V0.648438H194.123V28ZM205.127 0.648438V12.8828C205.127 13.6211 205.098 14.3594 205.039 15.0977C204.98 15.8359 204.916 16.5742 204.846 17.3125H204.916C205.279 16.7969 205.648 16.2871 206.023 15.7832C206.41 15.2793 206.82 14.793 207.254 14.3242L212.756 8.34766H218.803L210.998 16.873L219.277 28H213.09L207.43 20.0371L205.127 21.8828V28H199.766V0.648438H205.127Z" fill="white"/>
<path fill-rule="evenodd" clip-rule="evenodd" d="M1.7602 3.58914C10.1831 3.58914 18.606 3.58914 27.0289 3.58914C27.0289 6.0956 27.0289 8.60206 27.0289 11.1085C22.8044 11.1085 18.5799 11.1085 14.3554 11.1085C14.3554 15.2946 14.3554 19.4806 14.3554 23.6667C12.6602 23.6537 10.9652 23.6667 9.2704 23.7054C6.78004 26.1731 4.28968 28.6408 1.79932 31.1085C1.7602 21.9354 1.74716 12.7623 1.7602 3.58914Z" fill="#FDFDFD"/>
<path fill-rule="evenodd" clip-rule="evenodd" d="M16.9371 13.5891C25.36 13.5891 33.7829 13.5891 42.2058 13.5891C42.2318 22.7753 42.2058 31.9485 42.1275 41.1085C39.6742 38.6258 37.1969 36.171 34.6956 33.7442C28.7893 33.6667 22.8697 33.6409 16.9371 33.6667C16.9371 26.9742 16.9371 20.2816 16.9371 13.5891Z" fill="#FDFDFD"/>
<path d="M58.0049 39.1006C58.0049 39.5238 57.8991 39.8851 57.6875 40.1846C57.4792 40.4808 57.1862 40.707 56.8086 40.8633C56.431 41.0195 55.9867 41.0977 55.4756 41.0977C55.2054 41.0977 54.9499 41.0846 54.709 41.0586C54.4681 41.0326 54.2467 40.9951 54.0449 40.9463C53.8431 40.8975 53.6657 40.8372 53.5127 40.7656V39.9697C53.7568 40.0706 54.0547 40.165 54.4062 40.2529C54.7578 40.3376 55.1257 40.3799 55.5098 40.3799C55.8678 40.3799 56.1706 40.3327 56.418 40.2383C56.6654 40.1406 56.8525 40.0023 56.9795 39.8232C57.1097 39.641 57.1748 39.4229 57.1748 39.1689C57.1748 38.9248 57.1211 38.7214 57.0137 38.5586C56.9062 38.3926 56.7272 38.2428 56.4766 38.1094C56.2292 37.9727 55.8906 37.8278 55.4609 37.6748C55.1582 37.5674 54.8913 37.4502 54.6602 37.3232C54.429 37.193 54.2354 37.0465 54.0791 36.8838C53.9229 36.721 53.804 36.5322 53.7227 36.3174C53.6445 36.1025 53.6055 35.8568 53.6055 35.5801C53.6055 35.1992 53.7015 34.8737 53.8936 34.6035C54.0889 34.3301 54.3574 34.1217 54.6992 33.9785C55.0443 33.832 55.4398 33.7588 55.8857 33.7588C56.2666 33.7588 56.6182 33.7946 56.9404 33.8662C57.266 33.9378 57.5638 34.0339 57.834 34.1543L57.5752 34.8672C57.318 34.7598 57.0446 34.6702 56.7549 34.5986C56.4684 34.527 56.1722 34.4912 55.8662 34.4912C55.5602 34.4912 55.3014 34.5368 55.0898 34.6279C54.8815 34.7158 54.722 34.8411 54.6113 35.0039C54.5007 35.1667 54.4453 35.3604 54.4453 35.585C54.4453 35.8356 54.4974 36.0439 54.6016 36.21C54.709 36.376 54.8783 36.5241 55.1094 36.6543C55.3438 36.7812 55.653 36.9147 56.0371 37.0547C56.457 37.2077 56.8135 37.3704 57.1064 37.543C57.3994 37.7122 57.6224 37.9206 57.7754 38.168C57.9284 38.4121 58.0049 38.723 58.0049 39.1006ZM62.2572 41H61.4223V34.5938H59.1762V33.8613H64.4936V34.5938H62.2572V41ZM72.3641 37.4209C72.3641 37.971 72.2941 38.4723 72.1541 38.9248C72.0141 39.374 71.8058 39.7614 71.5291 40.0869C71.2557 40.4092 70.9155 40.6582 70.5086 40.834C70.1017 41.0098 69.6297 41.0977 69.0926 41.0977C68.5392 41.0977 68.0558 41.0098 67.6424 40.834C67.2322 40.6582 66.8904 40.4076 66.617 40.082C66.3468 39.7565 66.1434 39.3675 66.0066 38.915C65.8732 38.4626 65.8064 37.9613 65.8064 37.4111C65.8064 36.682 65.9269 36.0423 66.1678 35.4922C66.4087 34.9421 66.7732 34.514 67.2615 34.208C67.7531 33.902 68.3683 33.749 69.1072 33.749C69.8136 33.749 70.4077 33.9004 70.8895 34.2031C71.3745 34.5059 71.7407 34.9323 71.9881 35.4824C72.2387 36.0293 72.3641 36.6755 72.3641 37.4209ZM66.6805 37.4209C66.6805 38.0264 66.7667 38.5505 66.9393 38.9932C67.1118 39.4359 67.3755 39.7777 67.7303 40.0186C68.0883 40.2594 68.5424 40.3799 69.0926 40.3799C69.646 40.3799 70.0984 40.2594 70.45 40.0186C70.8048 39.7777 71.0669 39.4359 71.2361 38.9932C71.4054 38.5505 71.49 38.0264 71.49 37.4209C71.49 36.4997 71.2964 35.7803 70.909 35.2627C70.5249 34.7419 69.9243 34.4814 69.1072 34.4814C68.5538 34.4814 68.0981 34.6003 67.74 34.8379C67.382 35.0755 67.115 35.4141 66.9393 35.8535C66.7667 36.2897 66.6805 36.8122 66.6805 37.4209ZM76.4846 33.8613C77.0705 33.8613 77.5539 33.9346 77.9348 34.0811C78.3189 34.2243 78.6053 34.444 78.7941 34.7402C78.9829 35.0365 79.0773 35.4141 79.0773 35.873C79.0773 36.2507 79.009 36.5664 78.8723 36.8203C78.7355 37.071 78.5565 37.2744 78.3352 37.4307C78.1138 37.5869 77.8778 37.7074 77.6271 37.792L79.5852 41H78.6184L76.8703 38.0215H75.3859V41H74.5559V33.8613H76.4846ZM76.4357 34.5791H75.3859V37.3184H76.5187C77.1014 37.3184 77.5295 37.1995 77.8029 36.9619C78.0796 36.7243 78.218 36.3743 78.218 35.9121C78.218 35.4271 78.0715 35.0837 77.7785 34.8818C77.4888 34.68 77.0412 34.5791 76.4357 34.5791ZM85.8053 41L84.9264 38.7344H82.065L81.191 41H80.3512L83.1441 33.832H83.8912L86.6646 41H85.8053ZM84.6773 37.9971L83.8424 35.7461C83.8229 35.6875 83.7903 35.5915 83.7447 35.458C83.7024 35.3245 83.6585 35.1862 83.6129 35.043C83.5673 34.8997 83.5299 34.7842 83.5006 34.6963C83.468 34.8298 83.4322 34.9632 83.3932 35.0967C83.3574 35.2269 83.3215 35.349 83.2857 35.4629C83.2499 35.5736 83.219 35.668 83.193 35.7461L82.3434 37.9971H84.6773ZM91.3076 37.2598H93.8027V40.7217C93.4284 40.8486 93.0426 40.943 92.6455 41.0049C92.2516 41.0667 91.8105 41.0977 91.3223 41.0977C90.5801 41.0977 89.9535 40.9495 89.4424 40.6533C88.9346 40.3571 88.5488 39.9355 88.2852 39.3887C88.0215 38.8385 87.8896 38.1859 87.8896 37.4307C87.8896 36.6917 88.0345 36.0472 88.3242 35.4971C88.6172 34.9469 89.0387 34.5205 89.5889 34.2178C90.1423 33.9118 90.8063 33.7588 91.5811 33.7588C91.9782 33.7588 92.3542 33.7962 92.709 33.8711C93.0671 33.9427 93.3991 34.0452 93.7051 34.1787L93.3877 34.9014C93.124 34.7874 92.8327 34.6898 92.5137 34.6084C92.1979 34.527 91.8708 34.4863 91.5322 34.4863C90.9495 34.4863 90.4499 34.6068 90.0332 34.8477C89.6198 35.0885 89.3024 35.4287 89.0811 35.8682C88.863 36.3076 88.7539 36.8285 88.7539 37.4307C88.7539 38.0264 88.8499 38.5456 89.042 38.9883C89.234 39.4277 89.5335 39.7695 89.9404 40.0137C90.3473 40.2578 90.8714 40.3799 91.5127 40.3799C91.835 40.3799 92.1117 40.362 92.3428 40.3262C92.5739 40.2871 92.7839 40.2415 92.9727 40.1895V38.002H91.3076V37.2598ZM100.106 41H96.1312V33.8613H100.106V34.5938H96.9613V36.9033H99.9252V37.626H96.9613V40.2676H100.106V41ZM101.712 38.6758V37.9531H104.134V38.6758H101.712ZM106.941 41H106.111V33.8613H110.085V34.5938H106.941V37.2109H109.895V37.9385H106.941V41ZM113.805 33.8613C114.391 33.8613 114.875 33.9346 115.255 34.0811C115.64 34.2243 115.926 34.444 116.115 34.7402C116.304 35.0365 116.398 35.4141 116.398 35.873C116.398 36.2507 116.33 36.5664 116.193 36.8203C116.056 37.071 115.877 37.2744 115.656 37.4307C115.435 37.5869 115.199 37.7074 114.948 37.792L116.906 41H115.939L114.191 38.0215H112.707V41H111.877V33.8613H113.805ZM113.756 34.5791H112.707V37.3184H113.839C114.422 37.3184 114.85 37.1995 115.124 36.9619C115.4 36.7243 115.539 36.3743 115.539 35.9121C115.539 35.4271 115.392 35.0837 115.099 34.8818C114.81 34.68 114.362 34.5791 113.756 34.5791ZM122.623 41H118.648V33.8613H122.623V34.5938H119.479V36.9033H122.442V37.626H119.479V40.2676H122.623V41ZM128.78 41H124.805V33.8613H128.78V34.5938H125.635V36.9033H128.599V37.626H125.635V40.2676H128.78V41ZM142.27 33.8613L140.361 41H139.526L138.11 36.1953C138.067 36.0586 138.027 35.9219 137.988 35.7852C137.952 35.6452 137.918 35.5133 137.885 35.3896C137.852 35.2627 137.825 35.152 137.802 35.0576C137.782 34.96 137.768 34.8867 137.758 34.8379C137.752 34.8867 137.738 34.9583 137.719 35.0527C137.703 35.1471 137.68 35.2562 137.651 35.3799C137.625 35.5036 137.592 35.6354 137.553 35.7754C137.517 35.9154 137.478 36.057 137.436 36.2002L136.059 41H135.224L133.329 33.8613H134.194L135.341 38.3389C135.38 38.4886 135.416 38.6367 135.448 38.7832C135.484 38.9264 135.515 39.0664 135.541 39.2031C135.571 39.3398 135.597 39.4733 135.619 39.6035C135.642 39.7337 135.663 39.8607 135.683 39.9844C135.699 39.8574 135.72 39.7256 135.746 39.5889C135.772 39.4489 135.8 39.3073 135.829 39.1641C135.862 39.0208 135.896 38.876 135.932 38.7295C135.971 38.583 136.012 38.4365 136.054 38.29L137.338 33.8613H138.193L139.53 38.3242C139.576 38.4772 139.618 38.6286 139.657 38.7783C139.696 38.9281 139.731 39.0745 139.76 39.2178C139.793 39.3577 139.82 39.4928 139.843 39.623C139.869 39.75 139.892 39.8704 139.911 39.9844C139.934 39.8249 139.962 39.6572 139.994 39.4814C140.027 39.3057 140.064 39.1217 140.107 38.9297C140.152 38.7376 140.201 38.5391 140.253 38.334L141.401 33.8613H142.27ZM147.972 41H143.998V33.8613H147.972V34.5938H144.828V36.9033H147.792V37.626H144.828V40.2676H147.972V41ZM150.154 33.8613H152.176C153.068 33.8613 153.738 33.9948 154.188 34.2617C154.637 34.5286 154.861 34.9827 154.861 35.624C154.861 35.9007 154.808 36.1497 154.7 36.3711C154.596 36.5892 154.443 36.7699 154.241 36.9131C154.039 37.0563 153.79 37.1556 153.494 37.2109V37.2598C153.807 37.3086 154.083 37.3981 154.324 37.5283C154.565 37.6585 154.754 37.8408 154.891 38.0752C155.027 38.3096 155.096 38.6074 155.096 38.9688C155.096 39.4082 154.993 39.7793 154.788 40.082C154.586 40.3848 154.3 40.6143 153.929 40.7705C153.558 40.9235 153.118 41 152.61 41H150.154V33.8613ZM150.984 36.9229H152.352C152.973 36.9229 153.403 36.8203 153.641 36.6152C153.882 36.4102 154.002 36.1107 154.002 35.7168C154.002 35.3099 153.859 35.0169 153.572 34.8379C153.289 34.6589 152.837 34.5693 152.215 34.5693H150.984V36.9229ZM150.984 37.6211V40.292H152.469C153.104 40.292 153.553 40.1683 153.816 39.9209C154.08 39.6702 154.212 39.3333 154.212 38.9102C154.212 38.64 154.152 38.4089 154.031 38.2168C153.914 38.0247 153.722 37.8783 153.455 37.7773C153.191 37.6732 152.838 37.6211 152.396 37.6211H150.984ZM163.556 41L161.159 34.6816H161.12C161.133 34.8151 161.144 34.9779 161.154 35.1699C161.164 35.362 161.172 35.5719 161.179 35.7998C161.185 36.0244 161.188 36.2539 161.188 36.4883V41H160.417V33.8613H161.647L163.908 39.7988H163.942L166.237 33.8613H167.458V41H166.637V36.4297C166.637 36.2181 166.641 36.0065 166.647 35.7949C166.654 35.5801 166.662 35.3783 166.672 35.1895C166.681 34.9974 166.691 34.8314 166.701 34.6914H166.662L164.235 41H163.556ZM173.986 41H170.011V33.8613H173.986V34.5938H170.841V36.9033H173.805V37.626H170.841V40.2676H173.986V41ZM180.196 39.1006C180.196 39.5238 180.09 39.8851 179.879 40.1846C179.67 40.4808 179.377 40.707 179 40.8633C178.622 41.0195 178.178 41.0977 177.667 41.0977C177.396 41.0977 177.141 41.0846 176.9 41.0586C176.659 41.0326 176.438 40.9951 176.236 40.9463C176.034 40.8975 175.857 40.8372 175.704 40.7656V39.9697C175.948 40.0706 176.246 40.165 176.597 40.2529C176.949 40.3376 177.317 40.3799 177.701 40.3799C178.059 40.3799 178.362 40.3327 178.609 40.2383C178.856 40.1406 179.044 40.0023 179.171 39.8232C179.301 39.641 179.366 39.4229 179.366 39.1689C179.366 38.9248 179.312 38.7214 179.205 38.5586C179.097 38.3926 178.918 38.2428 178.668 38.1094C178.42 37.9727 178.082 37.8278 177.652 37.6748C177.349 37.5674 177.082 37.4502 176.851 37.3232C176.62 37.193 176.426 37.0465 176.27 36.8838C176.114 36.721 175.995 36.5322 175.914 36.3174C175.836 36.1025 175.796 35.8568 175.796 35.5801C175.796 35.1992 175.893 34.8737 176.085 34.6035C176.28 34.3301 176.548 34.1217 176.89 33.9785C177.235 33.832 177.631 33.7588 178.077 33.7588C178.458 33.7588 178.809 33.7946 179.131 33.8662C179.457 33.9378 179.755 34.0339 180.025 34.1543L179.766 34.8672C179.509 34.7598 179.236 34.6702 178.946 34.5986C178.659 34.527 178.363 34.4912 178.057 34.4912C177.751 34.4912 177.492 34.5368 177.281 34.6279C177.073 34.7158 176.913 34.8411 176.802 35.0039C176.692 35.1667 176.636 35.3604 176.636 35.585C176.636 35.8356 176.688 36.0439 176.793 36.21C176.9 36.376 177.069 36.5241 177.3 36.6543C177.535 36.7812 177.844 36.9147 178.228 37.0547C178.648 37.2077 179.004 37.3704 179.297 37.543C179.59 37.7122 179.813 37.9206 179.966 38.168C180.119 38.4121 180.196 38.723 180.196 39.1006ZM186.284 39.1006C186.284 39.5238 186.178 39.8851 185.967 40.1846C185.758 40.4808 185.465 40.707 185.088 40.8633C184.71 41.0195 184.266 41.0977 183.755 41.0977C183.485 41.0977 183.229 41.0846 182.988 41.0586C182.747 41.0326 182.526 40.9951 182.324 40.9463C182.122 40.8975 181.945 40.8372 181.792 40.7656V39.9697C182.036 40.0706 182.334 40.165 182.686 40.2529C183.037 40.3376 183.405 40.3799 183.789 40.3799C184.147 40.3799 184.45 40.3327 184.697 40.2383C184.945 40.1406 185.132 40.0023 185.259 39.8232C185.389 39.641 185.454 39.4229 185.454 39.1689C185.454 38.9248 185.4 38.7214 185.293 38.5586C185.186 38.3926 185.007 38.2428 184.756 38.1094C184.508 37.9727 184.17 37.8278 183.74 37.6748C183.438 37.5674 183.171 37.4502 182.939 37.3232C182.708 37.193 182.515 37.0465 182.358 36.8838C182.202 36.721 182.083 36.5322 182.002 36.3174C181.924 36.1025 181.885 35.8568 181.885 35.5801C181.885 35.1992 181.981 34.8737 182.173 34.6035C182.368 34.3301 182.637 34.1217 182.979 33.9785C183.324 33.832 183.719 33.7588 184.165 33.7588C184.546 33.7588 184.897 33.7946 185.22 33.8662C185.545 33.9378 185.843 34.0339 186.113 34.1543L185.854 34.8672C185.597 34.7598 185.324 34.6702 185.034 34.5986C184.748 34.527 184.451 34.4912 184.146 34.4912C183.84 34.4912 183.581 34.5368 183.369 34.6279C183.161 34.7158 183.001 34.8411 182.891 35.0039C182.78 35.1667 182.725 35.3604 182.725 35.585C182.725 35.8356 182.777 36.0439 182.881 36.21C182.988 36.376 183.158 36.5241 183.389 36.6543C183.623 36.7812 183.932 36.9147 184.316 37.0547C184.736 37.2077 185.093 37.3704 185.386 37.543C185.679 37.7122 185.902 37.9206 186.055 38.168C186.208 38.4121 186.284 38.723 186.284 39.1006ZM192.822 41L191.943 38.7344H189.081L188.207 41H187.368L190.161 33.832H190.908L193.681 41H192.822ZM191.694 37.9971L190.859 35.7461C190.839 35.6875 190.807 35.5915 190.761 35.458C190.719 35.3245 190.675 35.1862 190.629 35.043C190.584 34.8997 190.546 34.7842 190.517 34.6963C190.484 34.8298 190.449 34.9632 190.41 35.0967C190.374 35.2269 190.338 35.349 190.302 35.4629C190.266 35.5736 190.235 35.668 190.209 35.7461L189.36 37.9971H191.694ZM198.324 37.2598H200.819V40.7217C200.445 40.8486 200.059 40.943 199.662 41.0049C199.268 41.0667 198.827 41.0977 198.339 41.0977C197.596 41.0977 196.97 40.9495 196.459 40.6533C195.951 40.3571 195.565 39.9355 195.302 39.3887C195.038 38.8385 194.906 38.1859 194.906 37.4307C194.906 36.6917 195.051 36.0472 195.341 35.4971C195.634 34.9469 196.055 34.5205 196.605 34.2178C197.159 33.9118 197.823 33.7588 198.597 33.7588C198.995 33.7588 199.371 33.7962 199.725 33.8711C200.083 33.9427 200.415 34.0452 200.721 34.1787L200.404 34.9014C200.14 34.7874 199.849 34.6898 199.53 34.6084C199.214 34.527 198.887 34.4863 198.549 34.4863C197.966 34.4863 197.466 34.6068 197.05 34.8477C196.636 35.0885 196.319 35.4287 196.097 35.8682C195.879 36.3076 195.77 36.8285 195.77 37.4307C195.77 38.0264 195.866 38.5456 196.058 38.9883C196.25 39.4277 196.55 39.7695 196.957 40.0137C197.364 40.2578 197.888 40.3799 198.529 40.3799C198.851 40.3799 199.128 40.362 199.359 40.3262C199.59 40.2871 199.8 40.2415 199.989 40.1895V38.002H198.324V37.2598ZM203.148 41V33.8613H203.978V41H203.148ZM212.122 41H211.165L207.273 35.0039H207.234C207.244 35.1634 207.255 35.3457 207.268 35.5508C207.281 35.7526 207.291 35.9691 207.297 36.2002C207.307 36.4281 207.312 36.6608 207.312 36.8984V41H206.541V33.8613H207.493L211.37 39.8379H211.404C211.397 39.724 211.389 39.5628 211.379 39.3545C211.37 39.1429 211.36 38.9167 211.35 38.6758C211.344 38.4316 211.34 38.2054 211.34 37.9971V33.8613H212.122V41ZM217.722 37.2598H220.217V40.7217C219.842 40.8486 219.457 40.943 219.06 41.0049C218.666 41.0667 218.225 41.0977 217.736 41.0977C216.994 41.0977 216.368 40.9495 215.856 40.6533C215.349 40.3571 214.963 39.9355 214.699 39.3887C214.436 38.8385 214.304 38.1859 214.304 37.4307C214.304 36.6917 214.449 36.0472 214.738 35.4971C215.031 34.9469 215.453 34.5205 216.003 34.2178C216.556 33.9118 217.22 33.7588 217.995 33.7588C218.392 33.7588 218.768 33.7962 219.123 33.8711C219.481 33.9427 219.813 34.0452 220.119 34.1787L219.802 34.9014C219.538 34.7874 219.247 34.6898 218.928 34.6084C218.612 34.527 218.285 34.4863 217.946 34.4863C217.364 34.4863 216.864 34.6068 216.447 34.8477C216.034 35.0885 215.716 35.4287 215.495 35.8682C215.277 36.3076 215.168 36.8285 215.168 37.4307C215.168 38.0264 215.264 38.5456 215.456 38.9883C215.648 39.4277 215.948 39.7695 216.354 40.0137C216.761 40.2578 217.285 40.3799 217.927 40.3799C218.249 40.3799 218.526 40.362 218.757 40.3262C218.988 40.2871 219.198 40.2415 219.387 40.1895V38.002H217.722V37.2598Z" fill="white"/>
</svg>
